<?xml version="1.0" encoding="utf-8"?>
<svg viewBox="60.3023 38.7791 675.7309 639.1619" width="675.7309" height="639.1619" xmlns="http://www.w3.org/2000/svg">
  <defs>
    <style type="text/css">
	.st0{fill:#FFFFFF;}
</style>
  </defs>
  <path d="M505.24,230c4.52-3.82,8.19-6.53,11.41-9.7c13.39-13.14,26.7-26.36,39.89-39.7c1.51-1.52,3.04-4.03,2.93-5.98 c-0.53-9.08-1.64-18.13-2.66-28.34c-5.91,2.77-11.08,4.87-15.95,7.53c-26.3,14.41-52.5,29-78.78,43.44 c-21.47,11.8-43.05,23.42-64.47,35.32c-2.27,1.26-4.36,3.59-5.55,5.92c-7.12,13.95-13.77,28.15-20.94,42.08 c-7.12,13.84-14.68,27.44-21.99,41.18c-1.3,2.45-2.3,5.07-4.31,9.57c22.35-7.81,42.81-14.97,65.32-22.84 c-21.52,54.94-42.33,108.06-64.03,163.47c30.72-8.99,58.83-17.22,88.18-25.81c-1.87,13.99-3.44,26.82-5.34,39.59 c-7.09,47.8-14.33,95.58-21.44,143.38c-2.19,14.69-3.98,29.44-6.49,44.07c-0.33,1.94-3.92,4.82-5.91,4.76 c-37.21-1.17-73.85-5.85-109.26-18.21c-32.46-11.34-62.97-26.22-90.85-46.54c-21.77-15.87-41.45-33.71-59.05-54.25 c-27.37-31.93-46.74-67.75-60.17-107.56c-19.59-58.1-20.08-116.59-4.32-174.93c6.52-24.12,17.29-47.61,29.37-69.59 c14.9-27.1,34.19-51.66,56.93-72.91C213.8,81.62,279.99,50.53,356.2,41.42c52.87-6.32,104.7-1.43,155.17,16.11 c3.13,1.09,6.31,2.02,10.67,3.41c-13.07,7.48-24.99,14.32-36.92,21.11c-0.89,0.5-2.16,0.46-2.88,1.1 c-14.74,13.08-31.28,11.7-49.65,9.34c-51.48-6.62-101.48,0.67-149.47,21.19c-33.23,14.21-62.85,33.4-88.66,58.88 c-25.94,25.6-45.43,54.99-59.88,88.52c-26.02,60.4-24.55,121.26-5.08,182.4c5.69,17.86,15.79,34.31,24.63,53.02 c4.45-6.6,8.25-11.38,11.13-16.66c6.76-12.38,12.94-25.07,19.6-37.5c11.18-20.86,22.5-41.65,33.85-62.42 c8.6-15.73,17.35-31.36,25.98-47.07c1.2-2.18,2.09-4.54,3.67-8.03c-35.71-4-70.29-7.88-107.09-12c6.84-5.33,11.93-9.6,17.32-13.45 c18.01-12.85,36.16-25.5,54.19-38.32c30.99-22.04,61.89-44.21,92.89-66.22c13.79-9.79,27.56-19.62,41.77-28.78 c3.71-2.39,9.18-3.64,13.57-3.12c15.8,1.85,31.61,4.05,47.16,7.37c9.28,1.99,15.67-3.08,22.41-6.74 c26.11-14.2,51.8-29.16,77.72-43.72c24.98-14.03,50.04-27.91,75.07-41.83c0.85-0.48,1.85-0.69,3.72-1.36 c3.1,15.18,5.91,29.98,9.16,44.68c5.05,22.86,10.25,45.68,15.7,68.44c1.15,4.79,0.47,7.7-3.97,10.31 c-22.66,13.34-45.16,26.97-67.76,40.41c-1.69,1.01-4.19,2.35-5.64,1.79C525.17,238.67,515.97,234.57,505.24,230z M243.84,464.28 c-29.81,11.99-57.87,23.27-87.08,35.01c3.69,4.74,6.9,8.32,9.5,12.29c13.43,20.52,31.6,36.55,49.62,52.7 c2.51,2.25,5.92,3.5,9.76,5.71C231.77,534.42,237.66,500.18,243.84,464.28z M290.11,604.35c0.13,1.21,0.26,2.41,0.39,3.62 c21.42,5.57,42.84,11.13,65.31,16.97c1.16-27.58,2.22-52.91,3.38-80.49C334.97,565.45,312.54,584.9,290.11,604.35z" style=""/>
  <path d="M568.72,633.52c-0.95-1.08-1.89-1.98-2.61-3.03c-16.01-23.12-31.95-46.29-48.01-69.38c-2.33-3.36-5.07-6.45-7.83-9.48 c-13.04-14.35-15.02-32.55-18.45-50.5c-4.96-25.88-11.02-51.54-16.93-78.73c16.08,3.21,30.94,6.18,47.3,9.45 c-2.96-22.56-5.71-43.47-8.65-65.84c-28.26,14.18-54.66,27.43-81.06,40.68c-0.55-0.38-1.1-0.76-1.65-1.13 c8.92-18.58,17.97-37.09,26.73-55.75c5.09-10.85,9.36-22.1,14.72-32.81c1.94-3.86,5.41-7.74,9.17-9.78 c28.39-15.43,56.99-30.45,85.58-45.5c16.56-8.72,33.21-17.26,50.88-26.44c1.87,8.88,3.88,16.93,5.09,25.09 c0.31,2.11-1.43,4.91-2.94,6.86c-10.02,12.97-20.22,25.8-30.39,38.66c-5.32,6.74-10.96,13.25-15.88,20.26 c-1.57,2.24-1.86,5.8-1.75,8.72c1.11,29.7,2.62,59.38,3.63,89.08c1.49,43.63,2.65,87.26,3.98,130.89c0.08,2.48,0.39,4.94,0.59,7.42 c0.73,0.46,1.46,0.92,2.19,1.38c12.74-13.14,25.82-25.98,38.14-39.51c16.82-18.46,28.41-40.18,38.8-62.84 c27.1-59.07,27.76-119.41,10.1-180.75c-3.12-10.83-8.33-21.11-13.08-31.4c-2.19-4.74-2.79-8.3,1.07-12.62 c10.73-12,21.03-24.4,32.21-37.47c1.82,2.16,3.91,3.98,5.16,6.26c3.63,6.64,7.06,13.41,10.33,20.24 c34.26,71.73,39.93,146.03,17.39,221.9c-6.61,22.26-16.87,43.86-28.28,64.17c-15.31,27.25-34.94,51.8-58,73.11 c-19.7,18.21-40.91,34.63-64.53,47.65C570.88,632.87,569.86,633.1,568.72,633.52z" style=""/>
</svg>